<?xml version="1.0" encoding="UTF-8"?>
<svg version="1.1" width="24px" viewBox="0 0 48 48" xmlns="http://www.w3.org/2000/svg" xmlns:xlink="http://www.w3.org/1999/xlink">
    <!--Generated by IJSVG (https://github.com/iconjar/IJSVG)-->
    <path d="M0,0h48v48h-48Z" fill="none"></path>
    <path fill="#ffffff" d="M40,4h-32c-2.21,0 -3.98,1.79 -3.98,4l-0.02,36l8,-8h28c2.21,0 4,-1.79 4,-4v-24c0,-2.21 -1.79,-4 -4,-4Zm-24,24h-4v-4h4v4Zm0,-6h-4v-4h4v4Zm0,-6h-4v-4h4v4Zm14,12h-10v-4h10v4Zm6,-6h-16v-4h16v4Zm0,-6h-16v-4h16v4Z"></path>
</svg>